<?xml version="1.0" encoding="iso-8859-1"?>
<!-- Generator: Adobe Illustrator 19.0.0, SVG Export Plug-In . SVG Version: 6.00 Build 0)  -->
<svg version="1.1" id="Capa_1" xmlns="http://www.w3.org/2000/svg" xmlns:xlink="http://www.w3.org/1999/xlink" x="0px" y="0px"
	 viewBox="0 0 512 512" style="enable-background:new 0 0 512 512;" xml:space="preserve">
<g>
	<g>
		<path d="M220.812,3.645c-64.087,13.3-115.121,65.786-126.991,130.605c-7.399,40.407-0.107,81.53,20.534,115.793
			C138.67,290.41,151,330.713,151,369.833c0,10.946,0,20.642,0,31.622c0,23.292,11.98,41.49,30,47.967v17.57
			c0,24.813,20.187,45,45,45h60c24.813,0,45-20.187,45-45v-17.58c17.459-6.192,30-22.865,30-42.42v-37.307
			c0-40.092,12.104-80.541,35.004-116.973C412.123,227.068,421,195.916,421,164.992C421,61.184,326.03-18.193,220.812,3.645z
			 M301,466.992c0,8.271-6.729,15-15,15h-60c-8.271,0-15-6.729-15-15v-15h90V466.992z M331,406.992c0,8.271-6.729,15-15,15H196
			c-9.112,0-15-8.061-15-20.538v-10.462h150V406.992z M331.166,360.992h-150.35c-0.404-9.966-1.493-19.971-3.256-30h156.684
			C332.576,340.953,331.544,350.97,331.166,360.992z M370.605,236.747c-12.853,20.448-22.696,42.066-29.357,64.245H271v-68.931
			l25.779-26.638c5.761-5.953,5.605-15.449-0.348-21.21c-5.953-5.762-15.449-5.605-21.21,0.348L256,204.422l-19.221-19.861
			c-5.76-5.953-15.257-6.109-21.21-0.348c-5.953,5.761-6.109,15.257-0.348,21.21L241,232.061v68.931h-70.715
			c-6.837-22.141-16.924-44.333-30.233-66.428c-16.864-27.995-22.803-61.701-16.722-94.91
			c10.934-59.708,63.313-109.605,132.341-109.605C331.15,30.049,391,90.776,391,164.992C391,190.34,383.757,215.824,370.605,236.747
			z"/>
	</g>
</g>
<g>
	<g>
		<path d="M497,180.992h-30c-8.284,0-15,6.716-15,15s6.716,15,15,15h30c8.284,0,15-6.716,15-15S505.284,180.992,497,180.992z"/>
	</g>
</g>
<g>
	<g>
		<path d="M507.606,95.385c-5.857-5.858-15.355-5.858-21.213,0l-30,30c-5.858,5.858-5.858,15.355,0,21.213
			c5.857,5.858,15.356,5.859,21.213,0l30-30C513.464,110.74,513.464,101.243,507.606,95.385z"/>
	</g>
</g>
<g>
	<g>
		<path d="M507.606,275.385l-30-30c-5.857-5.858-15.355-5.858-21.213,0c-5.858,5.858-5.858,15.355,0,21.213l30,30
			c5.857,5.858,15.356,5.858,21.213,0C513.464,290.74,513.464,281.243,507.606,275.385z"/>
	</g>
</g>
<g>
	<g>
		<path d="M45,180.992H15c-8.284,0-15,6.716-15,15s6.716,15,15,15h30c8.284,0,15-6.716,15-15S53.284,180.992,45,180.992z"/>
	</g>
</g>
<g>
	<g>
		<path d="M55.607,125.385l-30-30c-5.857-5.858-15.355-5.858-21.213,0c-5.858,5.858-5.858,15.355,0,21.213l30,30
			c5.857,5.858,15.356,5.858,21.213,0C61.465,140.74,61.465,131.243,55.607,125.385z"/>
	</g>
</g>
<g>
	<g>
		<path d="M55.607,245.385c-5.858-5.858-15.356-5.858-21.213,0l-30,30c-5.858,5.858-5.858,15.355,0,21.213
			c5.857,5.858,15.356,5.858,21.213,0l30-30C61.465,260.74,61.465,251.243,55.607,245.385z"/>
	</g>
</g>
<g>
</g>
<g>
</g>
<g>
</g>
<g>
</g>
<g>
</g>
<g>
</g>
<g>
</g>
<g>
</g>
<g>
</g>
<g>
</g>
<g>
</g>
<g>
</g>
<g>
</g>
<g>
</g>
<g>
</g>
</svg>
