<?xml version="1.0" encoding="iso-8859-1"?>
<!-- Generator: Adobe Illustrator 19.0.0, SVG Export Plug-In . SVG Version: 6.00 Build 0)  -->
<svg xmlns="http://www.w3.org/2000/svg" xmlns:xlink="http://www.w3.org/1999/xlink" version="1.1" id="Capa_1" x="0px" y="0px" viewBox="0 0 512 512" style="enable-background:new 0 0 512 512;" xml:space="preserve" width="512px" height="512px">
<g>
	<g>
		<path d="M508.141,435.583c-0.122-0.362-0.264-0.721-0.445-1.071l-0.027-0.053c-0.973-2.244-2.094-4.41-3.358-6.481    L367.754,164.407c-1.338-2.581-4.073-4.153-6.937-4.098c-2.907,0.074-5.516,1.801-6.72,4.448l-34.518,75.896L214.593,4.827    c-1.22-2.741-3.939-4.506-6.937-4.506c-0.011,0-0.023,0-0.034,0c-3.012,0.013-5.731,1.805-6.931,4.568L75.546,292.869    c-1.672,3.847,0.091,8.32,3.938,9.992c0.986,0.428,2.012,0.632,3.023,0.632c2.932,0,5.726-1.709,6.969-4.57L202.437,38.979    l9.221,119.386c0.306,3.955,3.605,7.009,7.572,7.009h18.593l-1.884,103.653c-0.051,2.76,1.401,5.33,3.791,6.712    c2.39,1.381,5.34,1.358,7.709-0.063l22.096-13.258l16.331,52.361l-36.169,79.524c-1.737,3.818-0.049,8.32,3.769,10.057    c3.819,1.737,8.321,0.049,10.057-3.769l90.153-198.218l0.734,97.226c0.031,4.172,3.423,7.537,7.594,7.537h19.775l11.067,74.702    c-2.739-1.608-5.581-3.066-8.531-4.339c-3.854-1.663-8.32,0.113-9.982,3.964c-1.662,3.851,0.113,8.32,3.964,9.981    c16.49,7.114,29.117,20.99,34.643,38.067c0.82,2.533,2.905,4.451,5.497,5.057s5.311-0.189,7.169-2.096    c9.091-9.334,21.216-14.474,34.143-14.474l0.399,0.002c12.962,0.104,24.366,7.033,30.888,17.373l2.959,5.711    c1.815,4.402,2.821,9.221,2.821,14.265v41.14H15.3l0.315-22.496c0.163-11.625,4.095-22.299,10.605-30.826    c0.408-0.414,0.78-0.87,1.09-1.382c8.896-10.857,22.115-17.906,37.041-18.396c0.59-0.02,1.183-0.029,1.777-0.029    c24.424,0,45.54,16.471,51.35,40.053c0.542,2.197,2.034,4.038,4.073,5.022c2.037,0.983,4.408,1.008,6.465,0.064    c5.285-2.422,10.963-3.649,16.878-3.649c15.339,0,29.3,8.38,36.436,21.872c1.594,3.013,4.997,4.597,8.332,3.869    c3.33-0.726,5.77-3.584,5.964-6.987c0.458-7.997,3.687-14.847,9.915-20.979c12.688-12.687,28.878-17.848,48.12-15.348    c9.841,1.28,18.102,4.327,22.667,6.296c0.538,8.735,2.503,17.222,5.92,25.301c1.225,2.897,4.037,4.639,6.997,4.639    c0.987,0,1.99-0.193,2.955-0.602c3.863-1.633,5.672-6.09,4.036-9.953c-3.412-8.071-5.056-16.656-4.881-25.516    c0.313-15.909,6.71-30.981,18.014-42.442c11.305-11.461,26.286-18.061,42.184-18.584c4.192-0.138,7.478-3.648,7.34-7.841    c-0.139-4.193-3.681-7.465-7.841-7.341c-19.805,0.652-38.449,8.855-52.498,23.099c-11.741,11.903-19.203,26.965-21.571,43.159    c-5.416-1.975-12.612-4.086-20.817-5.204c-24.051-3.279-45.271,3.5-61.325,19.554c-4.387,4.318-7.788,9.043-10.187,14.139    c-10.392-10.315-24.588-16.322-39.763-16.322c-5.207,0-10.287,0.697-15.184,2.078c-9.942-26.026-35.005-43.568-63.583-43.568    c-0.763,0-1.522,0.012-2.277,0.037c-8.635,0.284-16.83,2.251-24.291,5.578l38.788-89.259c1.672-3.847-0.091-8.32-3.938-9.992    c-3.847-1.673-8.32,0.091-9.992,3.938L14.357,433.666c-8.551,11.077-13.721,24.976-13.933,40.116l-0.423,30.196    c-0.028,2.032,0.759,3.992,2.186,5.439c1.427,1.447,3.375,2.262,5.407,2.262h496.811c4.195,0,7.594-3.4,7.594-7.594v-48.735    C512.004,448.367,510.625,441.694,508.141,435.583z M295.305,294.028l-14.146-45.351c-0.695-2.224-2.369-4.007-4.547-4.835    c-2.174-0.828-4.613-0.614-6.61,0.584l-18.629,11.177l1.776-97.685c0.037-2.037-0.746-4.005-2.174-5.459    c-1.428-1.454-3.38-2.273-5.418-2.273h-19.297l-7.644-98.976l92.563,207.917L295.305,294.028z M460.251,402.812l-0.502-0.002    c-13.288,0-25.926,4.108-36.524,11.733c-3.382-6.891-7.766-13.197-12.957-18.754l-14.423-97.359    c-0.552-3.724-3.748-6.482-7.512-6.482h-18.791l-0.698-92.42l106.57,205.693C470.615,403.698,465.525,402.854,460.251,402.812z" fill="#FFFFFF"/>
	</g>
</g>
<g>
	<g>
		<path d="M195.189,287.66l-15.024-31.554c-0.887-1.864-2.495-3.287-4.453-3.94c-1.957-0.652-4.096-0.481-5.927,0.477    l-42.529,22.277c-3.715,1.946-5.15,6.536-3.204,10.251c1.945,3.715,6.534,5.149,10.25,3.203l35.54-18.615l11.633,24.431    c1.301,2.733,4.024,4.332,6.862,4.332c1.095,0,2.205-0.238,3.26-0.739C195.385,295.979,196.993,291.447,195.189,287.66z" fill="#FFFFFF"/>
	</g>
</g>
<g>
</g>
<g>
</g>
<g>
</g>
<g>
</g>
<g>
</g>
<g>
</g>
<g>
</g>
<g>
</g>
<g>
</g>
<g>
</g>
<g>
</g>
<g>
</g>
<g>
</g>
<g>
</g>
<g>
</g>
</svg>
